<svg xmlns="http://www.w3.org/2000/svg" width="85" height="80" viewBox="0 0 85 80">
  <g id="Action_3" data-name="Action 3" transform="translate(-278)">
    <rect id="Rectangle_2" data-name="Rectangle 2" width="85" height="80" transform="translate(363 80) rotate(180)" fill="#3ec28f"/>
    <g id="Icon">
      <g id="Call">
        <path id="path1943" d="M320.488,28.589c-.992.672-3.831,4.341,1.3,12.76,5.41,8.868,10.66,8.55,11.72,7.961l-3.651-5.816c-.882.469-1.615-.321-2.961-2.037a23.582,23.582,0,0,1-2.627-4.184c-.533-1.106-.96-2.234-.036-2.725Z" fill="#fff"/>
        <path id="path1945" d="M335.794,48.112a.713.713,0,0,0,.294-1.022v0l-2.85-4.534a.847.847,0,0,0-1.106-.27l-1.792.951L334,49.063s1.789-.946,1.789-.948Z" fill="#fff"/>
        <path id="path1947" d="M326.518,33.336a.713.713,0,0,0,.294-1.022v0l-2.932-4.665a.847.847,0,0,0-1.106-.27l-1.792.951,3.743,5.962s1.789-.946,1.789-.948Z" fill="#fff"/>
      </g>
      <g id="Speed">
        <rect id="Rectangle_26" data-name="Rectangle 26" width="12.743" height="2.395" rx="1" transform="translate(304 34.185)" fill="#fff"/>
        <rect id="Rectangle_27" data-name="Rectangle 27" width="10.782" height="2.395" rx="1" transform="translate(307.921 38.974)" fill="#fff"/>
        <rect id="Rectangle_28" data-name="Rectangle 28" width="8.822" height="2.395" rx="1" transform="translate(311.842 43.765)" fill="#fff"/>
      </g>
    </g>
    <text id="Sign_up" data-name="Sign up" transform="translate(278)" fill="#fff" font-size="10" font-family="Montserrat-SemiBold, Montserrat" font-weight="600"><tspan x="32.965" y="10">Call</tspan></text>
  </g>
</svg>
