<svg xmlns="http://www.w3.org/2000/svg" width="26.781" height="20.5" viewBox="0 0 26.781 20.5">
  <g id="icon" transform="translate(-219.75 -28.75)">
    <g id="Vector" transform="translate(220 29)" fill="#fff">
      <path d="M 23.06688117980957 20.125 L 3.213701963424683 20.125 C 1.372732043266296 20.125 -0.1249979510903358 18.62726974487305 -0.1249979510903358 16.78630065917969 L -0.1249979510903358 3.21370005607605 C -0.1249979510903358 1.372730016708374 1.372732043266296 -0.125 3.213701963424683 -0.125 L 23.07232284545898 -0.125 C 23.96281242370605 -0.125 24.80057144165039 0.2234099954366684 25.43128204345703 0.8560600280761719 C 26.06230163574219 1.489019989967346 26.40831184387207 2.328380107879639 26.40558242797852 3.219520092010498 L 26.40558242797852 16.78630065917969 C 26.40558242797852 18.62726974487305 24.90785217285156 20.125 23.06688117980957 20.125 Z M 3.213701963424683 1.598629951477051 C 2.320152044296265 1.598629951477051 1.593192100524902 2.325589895248413 1.593192100524902 3.21914005279541 L 1.593192100524902 16.78630065917969 C 1.593192100524902 17.67984962463379 2.320152044296265 18.40681076049805 3.213701963424683 18.40681076049805 L 23.07232284545898 18.40681076049805 C 23.9238224029541 18.40681076049805 24.62404251098633 17.74667739868164 24.68805885314941 16.91130065917969 L 24.68740272521973 16.91130065917969 L 24.68740272521973 16.78630065917969 L 24.68740272521973 3.21914005279541 C 24.68740272521973 2.325589895248413 23.96044158935547 1.598629951477051 23.06688117980957 1.598629951477051 L 3.213701963424683 1.598629951477051 Z" stroke="none"/>
      <path d="M 3.213701248168945 0 C 1.441001892089844 0 1.9073486328125e-06 1.440999984741211 1.9073486328125e-06 3.213699340820313 L 1.9073486328125e-06 16.78630065917969 C 1.9073486328125e-06 18.55900001525879 1.441001892089844 20 3.213701248168945 20 L 23.0668830871582 20 C 24.83959197998047 20 26.28058242797852 18.55900001525879 26.28058242797852 16.78630065917969 L 26.28058242797852 3.219139099121094 C 26.2860221862793 1.446439743041992 24.84502220153809 0 23.07232284545898 0 L 3.213701248168945 0 M 23.07232284545898 18.53181076049805 L 3.213701248168945 18.53181076049805 C 2.251222610473633 18.53181076049805 1.468191146850586 17.748779296875 1.468191146850586 16.78630065917969 L 1.468191146850586 3.219139099121094 C 1.468191146850586 2.256660461425781 2.251222610473633 1.473630905151367 3.213701248168945 1.473630905151367 L 23.0668830871582 1.473630905151367 C 24.02936172485352 1.473630905151367 24.81239128112793 2.256660461425781 24.81239128112793 3.219139099121094 L 24.81239128112793 16.78630065917969 L 24.81783294677734 16.78630065917969 C 24.81783294677734 17.748779296875 24.0348014831543 18.53181076049805 23.07232284545898 18.53181076049805 M 3.213701248168945 -0.25 L 23.07232284545898 -0.25 C 23.99627304077148 -0.25 24.8654727935791 0.1114597320556641 25.51980209350586 0.7677993774414063 C 26.17445182800293 1.424459457397461 26.53342247009277 2.295299530029297 26.53058242797852 3.21990966796875 L 26.53058242797852 16.78630065917969 C 26.53058242797852 18.69618988037109 24.97677230834961 20.25 23.0668830871582 20.25 L 3.213701248168945 20.25 C 1.303812026977539 20.25 -0.2499980926513672 18.69618988037109 -0.2499980926513672 16.78630065917969 L -0.2499980926513672 3.213699340820313 C -0.2499980926513672 1.303810119628906 1.303812026977539 -0.25 3.213701248168945 -0.25 Z M 24.56239128112793 16.9144458770752 L 24.56239128112793 16.78630065917969 L 24.56239128112793 3.219139099121094 C 24.56239128112793 2.394510269165039 23.89151191711426 1.723630905151367 23.0668830871582 1.723630905151367 L 3.213701248168945 1.723630905151367 C 2.389072418212891 1.723630905151367 1.718191146850586 2.394510269165039 1.718191146850586 3.219139099121094 L 1.718191146850586 16.78630065917969 C 1.718191146850586 17.61092948913574 2.389072418212891 18.28181076049805 3.213701248168945 18.28181076049805 L 23.07232284545898 18.28181076049805 C 23.85376739501953 18.28181076049805 24.49715042114258 17.67928886413574 24.56239128112793 16.9144458770752 Z" stroke="none" fill="#fff"/>
    </g>
    <g id="Vector-2" data-name="Vector" transform="translate(223.032 31.782)" fill="#fff">
      <path d="M 19.49144554138184 14.57022380828857 C 19.26779556274414 14.57022380828857 19.05742645263672 14.48637390136719 18.89909553527832 14.3341236114502 L 12.44709777832031 8.204200744628906 L 10.70047664642334 9.769413948059082 C 10.54742622375488 9.910243988037109 10.33819675445557 9.991643905639648 10.12765598297119 9.991643905639648 C 9.916296005249023 9.991643905639648 9.713086128234863 9.914843559265137 9.555446624755859 9.775383949279785 L 7.856631278991699 8.257844924926758 L 1.365846395492554 14.32986354827881 C 1.205336332321167 14.47804355621338 0.9975563883781433 14.5593433380127 0.7801863551139832 14.5593433380127 C 0.5475963950157166 14.5593433380127 0.3185863792896271 14.46018409729004 0.1518663614988327 14.28729343414307 C -0.170953631401062 13.93918323516846 -0.1536936312913895 13.39436340332031 0.1886463612318039 13.0710334777832 L 6.565644264221191 7.100970268249512 L 0.1639863699674606 1.379093766212463 C -0.008163634687662125 1.225383758544922 -0.11030363291502 1.014763712882996 -0.1235636323690414 0.7860637307167053 C -0.1368336379528046 0.55710369348526 -0.05948363617062569 0.336193710565567 0.09423636645078659 0.1640337109565735 C 0.2582363784313202 -0.01965629123151302 0.4925163686275482 -0.1249962896108627 0.7370063662528992 -0.1249962896108627 C 0.947736382484436 -0.1249962896108627 1.150996327400208 -0.04714629054069519 1.309326410293579 0.09423370659351349 L 8.341984748840332 6.387740612030029 C 8.38945198059082 6.423626899719238 8.430416107177734 6.459183692932129 8.470536231994629 6.499303817749023 L 8.507146835327148 6.535913944244385 L 8.507146835327148 6.53834342956543 L 10.12200546264648 7.980546951293945 L 18.90224647521973 0.09988371282815933 C 19.06120681762695 -0.04205629229545593 19.2652759552002 -0.1201062873005867 19.47709655761719 -0.1201062873005867 C 19.71998596191406 -0.1201062873005867 19.95315551757813 -0.01684628985822201 20.11683654785156 0.1631937026977539 C 20.43188667297363 0.5160636901855469 20.40337562561035 1.060813665390015 20.05404663085938 1.378383755683899 L 13.72686386108398 7.052515506744385 L 20.08322715759277 13.08758354187012 C 20.24922561645508 13.24436378479004 20.34399604797363 13.45777416229248 20.34981727600098 13.68826389312744 C 20.35562705993652 13.91813373565674 20.27231597900391 14.13633346557617 20.11522674560547 14.30266380310059 C 19.94853591918945 14.4755334854126 19.72732543945313 14.57022380828857 19.49144554138184 14.57022380828857 Z" stroke="none"/>
      <path d="M 0.7370052337646484 -9.5367431640625e-07 C 0.5348548889160156 -9.5367431640625e-07 0.3336715698242188 0.08354282379150391 0.1874771118164063 0.247283935546875 C -0.08441352844238281 0.5518035888671875 -0.05722427368164063 1.014013290405273 0.2472858428955078 1.285893440246582 L 6.750826835632324 7.098833560943604 L 0.2744770050048828 13.16191387176514 C -0.01916313171386719 13.43924331665039 -0.03547286987304688 13.90144348144531 0.2418460845947266 14.20052337646484 C 0.3886661529541016 14.35278415679932 0.5844268798828125 14.4343433380127 0.7801856994628906 14.4343433380127 C 0.9596271514892578 14.4343433380127 1.139076232910156 14.3690938949585 1.28045654296875 14.2385835647583 L 7.854686737060547 8.088503837585449 L 9.638266563415527 9.681763648986816 C 9.779645919799805 9.806833267211914 9.953646659851074 9.866643905639648 10.12765598297119 9.866643905639648 C 10.30166625976563 9.866643905639648 10.48111629486084 9.801393508911133 10.61705589294434 9.676323890686035 L 12.44957637786865 8.034133911132813 L 18.98573684692383 14.24402332305908 C 19.12711715698242 14.37997341156006 19.31199645996094 14.44522380828857 19.49144554138184 14.44522380828857 C 19.68720626831055 14.44522380828857 19.87752723693848 14.3690938949585 20.02433586120605 14.21683406829834 C 20.30166625976563 13.92320346832275 20.29078674316406 13.45555400848389 19.99715614318848 13.1782341003418 L 13.54255676269531 7.049893856048584 L 19.96996688842773 1.285893440246582 C 20.2690372467041 1.014013290405273 20.29622650146484 0.5518035888671875 20.02433586120605 0.247283935546875 C 19.87870597839355 0.08708858489990234 19.67845916748047 0.004899978637695313 19.47709655761719 0.0048980712890625 C 19.30253410339355 0.004896163940429688 19.12713813781738 0.06665992736816406 18.98573684692383 0.1929140090942383 L 10.12221622467041 8.148323059082031 L 8.393016815185547 6.60400390625 C 8.38758659362793 6.598563671112061 8.382146835327148 6.593123912811279 8.382146835327148 6.587693691253662 C 8.344076156616211 6.549623489379883 8.306015968322754 6.517003536224365 8.262516021728516 6.484373569488525 L 1.226076126098633 0.1874732971191406 C 1.085308074951172 0.06178474426269531 0.9107933044433594 -9.5367431640625e-07 0.7370052337646484 -9.5367431640625e-07 M 0.7370071411132813 -0.2499961853027344 C 0.9784870147705078 -0.2499961853027344 1.21131706237793 -0.1608562469482422 1.392585754394531 0.0009937286376953125 L 8.421595573425293 6.29123592376709 C 8.471978187561035 6.329587936401367 8.515832901000977 6.3678297996521 8.558926582336426 6.410913944244385 L 8.615686416625977 6.467680931091309 L 10.12179946899414 7.812766551971436 L 18.81874656677246 0.006863594055175781 C 19.00090599060059 -0.1557760238647461 19.23453712463379 -0.2451066970825195 19.47709655761719 -0.2451066970825195 C 19.75514602661133 -0.2450962066650391 20.02202606201172 -0.1269159317016602 20.20932579040527 0.07912349700927734 C 20.57061576843262 0.4837636947631836 20.53801727294922 1.107354164123535 20.13813591003418 1.470883369445801 L 13.91116619110107 7.055132389068604 L 20.16929626464844 12.99693393707275 C 20.35944557189941 13.17652320861816 20.46810722351074 13.42108345031738 20.47477722167969 13.68510341644287 C 20.48142623901367 13.94820404052734 20.38600730895996 14.1980037689209 20.20608711242676 14.38849353790283 C 20.01474571228027 14.58695411682129 19.76158714294434 14.69522380828857 19.49144554138184 14.69522380828857 C 19.23532676696777 14.69522380828857 18.99418640136719 14.59898376464844 18.81245613098145 14.42422389984131 L 12.44461917877197 8.374267578125 L 10.78389644622803 9.862503051757813 C 10.60925674438477 10.02321434020996 10.36918640136719 10.11664390563965 10.12765598297119 10.11664390563965 C 9.88576602935791 10.11664390563965 9.653136253356934 10.0287036895752 9.472616195678711 9.869013786315918 L 7.85858154296875 8.427201271057129 L 1.45124626159668 14.4211540222168 C 1.266956329345703 14.59127330780029 1.029075622558594 14.6843433380127 0.7801856994628906 14.6843433380127 C 0.5138454437255859 14.6843433380127 0.2520256042480469 14.57124328613281 0.06188583374023438 14.37405395507813 C -0.3090438842773438 13.97409343719482 -0.2891731262207031 13.35038375854492 0.1028156280517578 12.98016357421875 L 6.380462646484375 7.10310697555542 L 0.08068656921386719 1.472293853759766 C -0.1162738800048828 1.296433448791504 -0.2331638336181641 1.055263519287109 -0.2483539581298828 0.7932939529418945 C -0.2635536193847656 0.5309438705444336 -0.1750030517578125 0.2779035568237305 0.0009860992431640625 0.08078384399414063 C 0.1886863708496094 -0.1294364929199219 0.4569568634033203 -0.2499961853027344 0.7370071411132813 -0.2499961853027344 Z" stroke="none" fill="#fff"/>
    </g>
  </g>
</svg>
