<svg xmlns="http://www.w3.org/2000/svg" width="31.004" height="13.011" viewBox="0 0 31.004 13.011">
  <g id="Frame" transform="translate(0.004 0.011)">
    <path id="Vector" d="M9.011,3.171H1.56A1.572,1.572,0,0,1,0,1.585,1.572,1.572,0,0,1,1.56,0H9.011a1.572,1.572,0,0,1,1.56,1.585A1.572,1.572,0,0,1,9.011,3.171Z" transform="translate(4.266 4.911)" fill="#fff"/>
    <path id="Vector-2" data-name="Vector" d="M1.564,3.174H1.486a.52.52,0,0,1-.078-.008.53.53,0,0,1-.078-.012l-.074-.012c-.023,0-.051-.012-.074-.016s-.051-.012-.074-.02l-.074-.024c-.023-.008-.047-.02-.07-.028a.548.548,0,0,1-.07-.032l-.07-.036a.585.585,0,0,1-.066-.04C.733,2.936.714,2.92.69,2.908a.353.353,0,0,1-.062-.044L.569,2.817C.55,2.8.53,2.781.511,2.765A.364.364,0,0,1,.456,2.71L.4,2.654C.386,2.635.367,2.615.351,2.6S.32,2.555.3,2.532a.605.605,0,0,1-.043-.063C.246,2.448.234,2.425.218,2.4a.6.6,0,0,0-.039-.067L.144,2.262C.133,2.238.125,2.215.113,2.191a.535.535,0,0,1-.027-.071C.078,2.1.07,2.072.062,2.044a.535.535,0,0,1-.019-.075.517.517,0,0,1-.016-.075.5.5,0,0,1-.012-.075c0-.024-.008-.052-.012-.075a.514.514,0,0,1,0-.079V1.505c0-.028,0-.052,0-.079s.008-.052.012-.075S.023,1.3.027,1.275.039,1.224.043,1.2s.012-.052.019-.075.016-.052.023-.075S.105,1,.113.978A.566.566,0,0,1,.144.907L.179.835A.6.6,0,0,1,.218.768.647.647,0,0,1,.261.7C.277.681.289.657.3.637S.335.594.351.574A.686.686,0,0,1,.4.514.364.364,0,0,1,.456.459L.511.4C.53.387.55.368.569.352L.628.3A.6.6,0,0,1,.69.261C.71.249.733.233.756.221S.8.193.823.181L.893.146C.916.134.94.126.963.114a.516.516,0,0,1,.07-.028L1.107.062a.513.513,0,0,1,.074-.02A.494.494,0,0,1,1.256.027L1.33.015A.52.52,0,0,1,1.408.007a.489.489,0,0,1,.078,0,.974.974,0,0,1,.152,0c.023,0,.051,0,.078,0s.051,0,.078.008l.074.012c.023,0,.051.012.074.016s.051.012.074.02L2.09.086c.023.008.047.02.07.028a.548.548,0,0,1,.07.032L2.3.181a.585.585,0,0,1,.066.04.585.585,0,0,0,.066.04c.019.016.043.028.062.044l.058.048A.681.681,0,0,1,2.613.4a.364.364,0,0,1,.055.055l.055.055c.016.02.035.04.051.059s.031.04.047.063A.605.605,0,0,1,2.862.7.378.378,0,0,1,2.9.768c.012.024.027.044.039.067l.035.071a.566.566,0,0,1,.031.071c.008.024.019.048.027.071s.016.048.023.075a.535.535,0,0,1,.019.075.517.517,0,0,1,.016.075c0,.024.008.052.012.075a.493.493,0,0,1,.008.075.54.54,0,0,1,0,.079c0,.024,0,.052,0,.079a.567.567,0,0,1,0,.079c0,.024,0,.052,0,.079s0,.052-.008.075-.008.052-.012.075-.012.052-.016.075a.535.535,0,0,1-.019.075c-.008.024-.016.052-.023.075s-.019.048-.027.071-.019.048-.031.071l-.035.071A.378.378,0,0,1,2.9,2.4c-.012.024-.027.044-.039.067s-.027.044-.043.063-.031.044-.047.063a.686.686,0,0,1-.051.059.364.364,0,0,1-.055.055.727.727,0,0,0-.055.055c-.019.016-.039.036-.058.052L2.5,2.865a.6.6,0,0,1-.062.044.369.369,0,0,1-.066.04c-.023.012-.043.028-.066.04l-.07.036c-.023.012-.047.02-.07.032a.516.516,0,0,1-.07.028l-.074.024a.513.513,0,0,1-.074.02.494.494,0,0,1-.074.016.48.48,0,0,1-.074.012l-.078.012c-.023,0-.051,0-.078.008Z" transform="translate(-0.004 4.908)" fill="#fff"/>
    <path id="Vector-3" data-name="Vector" d="M9.128,3.171H1.56A1.572,1.572,0,0,1,0,1.585,1.572,1.572,0,0,1,1.56,0H9.128a1.572,1.572,0,0,1,1.56,1.585A1.57,1.57,0,0,1,9.128,3.171Z" transform="translate(20.308 4.911)" fill="#fff"/>
    <path id="Vector-4" data-name="Vector" d="M1.56,3.174H1.482A.577.577,0,0,1,1.4,3.166a.48.48,0,0,1-.074-.012l-.074-.012c-.023,0-.051-.012-.074-.016s-.051-.012-.074-.02l-.074-.024c-.023-.008-.047-.02-.07-.028s-.047-.02-.07-.032l-.07-.036a.585.585,0,0,1-.066-.04C.733,2.936.714,2.92.69,2.908S.647,2.88.628,2.865L.565,2.817C.546,2.8.526,2.781.507,2.765A.364.364,0,0,1,.452,2.71L.4,2.654C.382,2.635.363,2.615.347,2.6S.316,2.555.3,2.532a.605.605,0,0,1-.043-.063A.378.378,0,0,1,.218,2.4C.207,2.377.191,2.357.179,2.333L.144,2.262C.133,2.238.125,2.215.113,2.191a.535.535,0,0,1-.027-.071C.078,2.1.07,2.072.062,2.044a.535.535,0,0,1-.019-.075.517.517,0,0,1-.016-.075c0-.024-.008-.052-.012-.075S.008,1.767,0,1.743a.514.514,0,0,1,0-.079V1.505c0-.028,0-.052,0-.079a.5.5,0,0,1,.012-.075c0-.024.008-.052.012-.075S.039,1.224.043,1.2s.012-.052.019-.075.016-.052.023-.075S.105,1,.113.978A.566.566,0,0,1,.144.907L.179.835A.6.6,0,0,1,.218.768C.23.744.246.724.257.7A.605.605,0,0,0,.3.637C.316.617.331.594.347.574A.686.686,0,0,1,.4.514.364.364,0,0,1,.452.459L.507.4C.526.387.546.368.565.352S.6.32.628.3A.6.6,0,0,1,.69.261.369.369,0,0,1,.756.221C.78.209.8.193.823.181L.893.146C.916.134.94.126.963.114a.516.516,0,0,1,.07-.028L1.107.062a.513.513,0,0,1,.074-.02A.494.494,0,0,1,1.256.027L1.33.015A.47.47,0,0,1,1.4.007a.514.514,0,0,1,.078,0,1.024,1.024,0,0,1,.156,0c.023,0,.051,0,.078,0s.051,0,.078.008l.074.012c.023,0,.051.012.074.016s.051.012.074.02L2.09.086c.023.008.047.02.07.028a.548.548,0,0,1,.07.032L2.3.181a.585.585,0,0,1,.066.04.585.585,0,0,0,.066.04A.353.353,0,0,1,2.5.3c.019.016.039.032.062.048A.681.681,0,0,1,2.616.4a.364.364,0,0,1,.055.055l.055.055c.016.02.035.04.051.059s.031.04.047.063A.605.605,0,0,1,2.866.7a.378.378,0,0,1,.039.067c.012.024.027.044.039.067l.035.071C2.991.93,3,.954,3.01.978a.535.535,0,0,1,.027.071c.008.024.016.048.023.075a.535.535,0,0,1,.019.075.517.517,0,0,1,.016.075.5.5,0,0,1,.012.075c0,.024.008.052.012.075s0,.052.008.079v.159a.605.605,0,0,1-.008.079.5.5,0,0,1-.012.075c0,.024-.008.052-.012.075s-.012.052-.016.075-.012.052-.019.075-.016.052-.023.075-.019.048-.027.071-.019.048-.031.071l-.035.071a.378.378,0,0,1-.039.067c-.012.024-.027.044-.039.067a.359.359,0,0,1-.043.063c-.016.02-.031.044-.047.063s-.035.04-.051.059a.364.364,0,0,1-.055.055l-.055.055c-.019.016-.039.036-.058.052s-.039.032-.062.048a.6.6,0,0,1-.062.044c-.019.012-.043.028-.066.04s-.043.028-.066.04l-.07.036c-.023.012-.047.02-.07.032a.516.516,0,0,1-.07.028l-.074.024a.694.694,0,0,1-.074.02.494.494,0,0,1-.074.016.48.48,0,0,1-.074.012l-.078.012c-.023,0-.051,0-.078.008Z" transform="translate(16.019 4.908)" fill="#fff"/>
    <path id="Vector-5" data-name="Vector" d="M6.984,3.171H1.56A1.572,1.572,0,0,1,0,1.585,1.572,1.572,0,0,1,1.56,0H6.984a1.572,1.572,0,0,1,1.56,1.585A1.572,1.572,0,0,1,6.984,3.171Z" transform="translate(4.25 9.829)" fill="#fff"/>
    <path id="Vector-6" data-name="Vector" d="M1.56,3.182a.514.514,0,0,1-.078,0c-.027,0-.051,0-.078,0a.622.622,0,0,1-.078-.012L1.252,3.15c-.023,0-.051-.012-.074-.016s-.051-.012-.074-.02L1.029,3.09c-.023-.008-.047-.02-.07-.028a.548.548,0,0,1-.07-.032L.819,3a.585.585,0,0,1-.066-.04C.729,2.944.71,2.928.686,2.916a.353.353,0,0,1-.062-.044L.565,2.825C.546,2.809.526,2.789.507,2.773a.364.364,0,0,1-.055-.055L.4,2.662C.382,2.643.363,2.623.347,2.6S.316,2.563.3,2.54a.605.605,0,0,1-.043-.063C.242,2.456.23,2.433.214,2.409a.6.6,0,0,1-.039-.067L.14,2.27A.566.566,0,0,1,.109,2.2a.535.535,0,0,1-.027-.071C.074,2.1.066,2.08.058,2.052a.724.724,0,0,1-.019-.075A.517.517,0,0,1,.023,1.9c0-.024-.008-.052-.012-.075A.5.5,0,0,1,0,1.747a.514.514,0,0,1,0-.079V1.509c0-.024,0-.052,0-.079s0-.052.008-.075S.019,1.3.023,1.279.035,1.228.039,1.2a.535.535,0,0,1,.019-.075c.008-.024.016-.048.023-.075S.1,1.006.109.982A.566.566,0,0,1,.14.911L.175.839A.6.6,0,0,1,.214.772.647.647,0,0,1,.257.7C.273.681.285.661.3.641S.331.6.347.578.382.538.4.518A.364.364,0,0,1,.452.463.727.727,0,0,0,.507.407C.526.391.546.372.565.356L.624.308A.6.6,0,0,1,.686.265.369.369,0,0,1,.753.225C.776.213.8.2.819.185L.889.15C.912.138.936.13.959.118S1.006.1,1.029.09L1.1.066a.513.513,0,0,1,.074-.02A.494.494,0,0,1,1.252.031L1.326.019A.473.473,0,0,1,1.4.011c.023,0,.051,0,.078-.008a.974.974,0,0,1,.152,0,.52.52,0,0,1,.078.008c.023,0,.051,0,.078.008l.074.012c.023,0,.051.012.074.016a.513.513,0,0,1,.074.02L2.086.09c.023.008.047.02.07.028s.047.02.07.032L2.3.185a.585.585,0,0,1,.066.04c.023.012.043.028.066.04s.043.028.062.044L2.55.356a.681.681,0,0,1,.058.052.364.364,0,0,1,.055.055l.055.055c.016.02.035.04.051.059s.031.04.047.063A.605.605,0,0,1,2.858.7c.016.02.027.044.043.067s.023.044.039.067l.035.071c.012.024.019.048.031.071a.535.535,0,0,1,.027.071c.008.024.016.048.023.075a.535.535,0,0,1,.019.075.517.517,0,0,1,.016.075c0,.024.008.052.012.075a.493.493,0,0,1,.008.075.54.54,0,0,1,0,.079v.159c0,.028,0,.052,0,.079s0,.052-.008.079-.008.052-.012.075-.012.052-.016.075-.012.052-.019.075-.016.052-.023.075-.019.048-.027.071-.019.048-.031.071l-.035.071a.6.6,0,0,1-.039.067.647.647,0,0,1-.043.067c-.016.02-.027.044-.043.063s-.031.04-.047.063-.035.04-.051.059a.364.364,0,0,1-.055.055l-.055.055c-.019.016-.039.036-.058.052l-.058.048a.6.6,0,0,1-.062.044.369.369,0,0,1-.066.04c-.023.012-.043.028-.066.04l-.07.036c-.023.012-.047.02-.07.032a.516.516,0,0,1-.07.028l-.074.024a.513.513,0,0,1-.074.02.494.494,0,0,1-.074.016.48.48,0,0,1-.074.012l-.078.012a.489.489,0,0,1-.078,0A.441.441,0,0,1,1.56,3.182Z" transform="translate(13.964 9.818)" fill="#fff"/>
    <path id="Vector-7" data-name="Vector" d="M6.984,3.171H1.56A1.572,1.572,0,0,1,0,1.585,1.572,1.572,0,0,1,1.56,0H6.984a1.572,1.572,0,0,1,1.56,1.585A1.572,1.572,0,0,1,6.984,3.171Z" transform="translate(18.191 9.829)" fill="#fff"/>
    <path id="Vector-8" data-name="Vector" d="M1.56,3.182a.54.54,0,0,1-.078,0c-.023,0-.051,0-.078,0a.48.48,0,0,1-.074-.012L1.256,3.15c-.023,0-.051-.012-.074-.016s-.051-.012-.074-.02L1.033,3.09c-.023-.008-.047-.02-.07-.028a.548.548,0,0,1-.07-.032L.823,3a.585.585,0,0,1-.066-.04C.733,2.944.714,2.928.69,2.916a.353.353,0,0,1-.062-.044L.569,2.825C.55,2.809.53,2.789.511,2.773a.364.364,0,0,1-.055-.055A.727.727,0,0,0,.4,2.662C.386,2.643.367,2.623.351,2.6S.32,2.563.3,2.54a.605.605,0,0,1-.043-.063.378.378,0,0,1-.039-.067C.211,2.385.195,2.365.183,2.341L.148,2.27C.136,2.246.129,2.222.117,2.2A.535.535,0,0,1,.09,2.127C.082,2.1.074,2.08.066,2.052a.724.724,0,0,1-.019-.075A.517.517,0,0,1,.031,1.9a.5.5,0,0,1-.012-.075c0-.024-.008-.052-.012-.079a.514.514,0,0,1,0-.079c0-.024,0-.052,0-.079a.54.54,0,0,1,0-.079c0-.024,0-.052,0-.079a.5.5,0,0,1,.012-.075c0-.024.008-.052.012-.075S.043,1.228.047,1.2a.535.535,0,0,1,.019-.075C.074,1.1.082,1.081.09,1.053S.109,1.006.117.982.136.934.148.911L.183.839A.6.6,0,0,1,.222.772C.234.748.25.728.261.7S.289.661.3.641.335.6.351.578.386.538.4.518A.364.364,0,0,1,.456.463L.511.407C.53.391.55.372.569.356L.628.308A.6.6,0,0,1,.69.265.369.369,0,0,1,.756.225C.78.213.8.2.823.185L.893.15C.916.138.94.13.963.118S1.01.1,1.033.09L1.107.066a.513.513,0,0,1,.074-.02c.023,0,.051-.012.074-.016L1.33.019A.47.47,0,0,1,1.4.011c.023,0,.051,0,.078-.008a1.024,1.024,0,0,1,.156,0,.577.577,0,0,1,.078.008c.023,0,.051,0,.078.008l.074.012c.023,0,.051.012.074.016s.051.012.074.02L2.09.09c.023.008.047.02.07.028s.047.02.07.032L2.3.185a.585.585,0,0,1,.066.04c.023.012.043.028.066.04s.043.028.062.044l.058.048a.681.681,0,0,1,.058.052.364.364,0,0,1,.055.055l.055.055c.016.02.035.04.051.059s.031.04.047.063A.605.605,0,0,1,2.862.7.378.378,0,0,1,2.9.772c.012.02.027.044.039.067l.035.071c.012.024.019.048.031.071a.535.535,0,0,1,.027.071c.008.024.016.048.023.075a.535.535,0,0,1,.019.075c0,.024.012.052.016.075s.008.052.012.075.008.052.012.075a.54.54,0,0,1,0,.079c0,.028,0,.052,0,.079a.54.54,0,0,1,0,.079c0,.024,0,.052,0,.079a.652.652,0,0,1-.012.079c0,.024-.008.052-.012.075s-.012.052-.016.075-.012.052-.019.075-.016.052-.023.075-.019.048-.027.071-.019.048-.031.071l-.035.071a.6.6,0,0,1-.039.067c-.012.024-.027.044-.039.067s-.027.044-.043.063-.031.04-.047.063a.686.686,0,0,1-.051.059.364.364,0,0,1-.055.055.727.727,0,0,0-.055.055c-.019.016-.039.036-.058.052L2.5,2.872a.6.6,0,0,1-.062.044.369.369,0,0,1-.066.04c-.023.012-.043.028-.066.04l-.07.036c-.023.012-.047.02-.07.032a.516.516,0,0,1-.07.028l-.074.024a.513.513,0,0,1-.074.02.494.494,0,0,1-.074.016.48.48,0,0,1-.074.012l-.078.012a.489.489,0,0,1-.078,0A.489.489,0,0,1,1.56,3.182Z" transform="translate(27.877 9.818)" fill="#fff"/>
    <path id="Vector-9" data-name="Vector" d="M1.568,3.182a.54.54,0,0,1-.078,0c-.023,0-.051,0-.078,0a.622.622,0,0,1-.078-.012L1.259,3.15c-.023,0-.051-.012-.074-.016s-.051-.012-.074-.02L1.037,3.09c-.023-.008-.047-.02-.07-.028S.92,3.043.9,3.031L.827,3a.369.369,0,0,1-.066-.04c-.023-.012-.043-.028-.066-.04S.651,2.888.632,2.872.593,2.841.569,2.825.53,2.789.511,2.773a.364.364,0,0,1-.055-.055A.727.727,0,0,0,.4,2.662C.386,2.643.367,2.623.351,2.6S.32,2.563.3,2.54a.605.605,0,0,1-.043-.063C.25,2.456.234,2.433.222,2.409S.195,2.365.183,2.341L.148,2.27C.136,2.246.129,2.222.117,2.2A.535.535,0,0,1,.09,2.127C.082,2.1.074,2.08.066,2.052a.724.724,0,0,1-.019-.075A.517.517,0,0,1,.031,1.9a.5.5,0,0,1-.012-.075c0-.024-.008-.052-.012-.079S0,1.7,0,1.668V1.509A.605.605,0,0,1,.008,1.43a.5.5,0,0,1,.012-.075c0-.024.008-.052.012-.075S.043,1.228.047,1.2s.012-.052.019-.075.016-.048.023-.075S.109,1.006.117.982.136.934.148.911L.183.839A.6.6,0,0,1,.222.772C.234.748.25.728.261.7S.289.661.3.641.335.6.351.578.386.538.4.518A.364.364,0,0,1,.456.463L.511.407C.53.391.55.372.569.356S.608.324.632.308A.6.6,0,0,1,.694.265.369.369,0,0,1,.76.225C.784.213.8.2.827.185L.9.15C.92.138.944.13.967.118S1.014.1,1.037.09L1.111.066a.513.513,0,0,1,.074-.02A.494.494,0,0,1,1.259.031L1.334.019A.473.473,0,0,1,1.412.011c.023,0,.051,0,.078-.008a1.024,1.024,0,0,1,.156,0,.577.577,0,0,1,.078.008c.023,0,.051,0,.074.008l.074.012c.023,0,.051.012.074.016a.513.513,0,0,1,.074.02L2.094.09c.023.008.047.02.07.028s.047.02.07.032L2.3.185a.585.585,0,0,1,.066.04c.023.012.043.028.066.04S2.48.292,2.5.308l.062.048A.681.681,0,0,1,2.62.407a.364.364,0,0,1,.055.055L2.73.518c.016.02.035.04.051.059s.031.04.047.063A.605.605,0,0,1,2.87.7a.378.378,0,0,1,.039.067c.012.02.027.044.039.067l.035.071c.012.024.019.048.031.071a.535.535,0,0,1,.027.071c.008.024.016.048.023.075a.535.535,0,0,1,.019.075c0,.024.012.052.016.075s.008.052.012.075.008.052.012.075a.54.54,0,0,1,0,.079v.159c0,.024,0,.052,0,.079a.652.652,0,0,1-.012.079c0,.024-.008.052-.012.075s-.012.052-.016.075-.012.052-.019.075-.016.052-.023.075-.019.048-.027.071-.019.048-.031.071l-.035.071a.6.6,0,0,1-.039.067c-.012.024-.027.044-.039.067s-.027.044-.043.063-.031.04-.047.063a.686.686,0,0,1-.051.059.364.364,0,0,1-.055.055.727.727,0,0,0-.055.055c-.019.016-.039.036-.058.052s-.039.032-.062.048a.6.6,0,0,1-.062.044.369.369,0,0,1-.066.04c-.019.012-.043.028-.066.04l-.07.036c-.023.012-.047.02-.07.032a.516.516,0,0,1-.07.028l-.074.024a.513.513,0,0,1-.074.02.494.494,0,0,1-.074.016.48.48,0,0,1-.074.012l-.074.012a.514.514,0,0,1-.078,0A.514.514,0,0,1,1.568,3.182Z" transform="translate(-0.004 9.818)" fill="#fff"/>
    <path id="Vector-10" data-name="Vector" d="M6.984,3.171H1.56A1.572,1.572,0,0,1,0,1.585,1.572,1.572,0,0,1,1.56,0H6.984a1.572,1.572,0,0,1,1.56,1.585A1.572,1.572,0,0,1,6.984,3.171Z" transform="translate(8.54 0.004)" fill="#fff"/>
    <path id="Vector-11" data-name="Vector" d="M6.984,3.171H1.56A1.572,1.572,0,0,1,0,1.585,1.572,1.572,0,0,1,1.56,0H6.984a1.572,1.572,0,0,1,1.56,1.585A1.572,1.572,0,0,1,6.984,3.171Z" transform="translate(18.191 0.004)" fill="#fff"/>
    <path id="Vector-12" data-name="Vector" d="M1.564,3.178H1.486c-.027,0-.051,0-.078,0a.53.53,0,0,1-.078-.012L1.256,3.15c-.023,0-.051-.012-.074-.016s-.051-.012-.074-.02L1.033,3.09c-.023-.008-.047-.02-.07-.028a.548.548,0,0,1-.07-.032L.823,3a.585.585,0,0,1-.066-.04C.733,2.944.714,2.928.69,2.916S.647,2.888.628,2.872L.569,2.825a.681.681,0,0,1-.058-.052.364.364,0,0,1-.055-.055A.727.727,0,0,0,.4,2.662C.386,2.643.367,2.623.351,2.6S.32,2.563.3,2.54a.605.605,0,0,1-.043-.063c-.016-.02-.027-.044-.043-.067a.6.6,0,0,0-.039-.067L.144,2.27C.133,2.246.125,2.222.113,2.2a.535.535,0,0,1-.027-.071C.078,2.1.07,2.08.062,2.052a.535.535,0,0,1-.019-.075A.517.517,0,0,1,.027,1.9a.5.5,0,0,1-.012-.075C.012,1.8.008,1.775,0,1.747a.514.514,0,0,1,0-.079V1.509c0-.024,0-.052,0-.079s.008-.052.012-.075S.023,1.3.027,1.279.039,1.228.043,1.2s.012-.052.019-.075.016-.052.023-.075S.105,1.006.113.982A.566.566,0,0,1,.144.911L.179.839A.6.6,0,0,1,.218.772.647.647,0,0,1,.261.7C.277.685.289.661.3.641S.335.6.351.578A.686.686,0,0,1,.4.518.364.364,0,0,1,.456.463L.511.407C.53.391.55.372.569.356L.628.308A.6.6,0,0,1,.69.265.369.369,0,0,1,.756.225C.78.213.8.2.823.185L.893.15C.916.138.94.13.963.118A.516.516,0,0,1,1.033.09L1.107.066a.513.513,0,0,1,.074-.02c.023,0,.051-.012.074-.016A.48.48,0,0,1,1.33.019L1.408.007a.489.489,0,0,1,.078,0,.974.974,0,0,1,.152,0c.023,0,.051,0,.078,0a.622.622,0,0,1,.078.012l.074.012c.023,0,.051.012.074.016s.051.012.074.02L2.09.09c.023.008.047.02.07.028A.548.548,0,0,1,2.23.15L2.3.185a.585.585,0,0,1,.066.04c.023.012.043.028.066.04s.043.028.062.044l.058.048a.681.681,0,0,1,.058.052.364.364,0,0,1,.055.055l.055.055c.016.02.035.04.051.059s.031.04.047.063A.605.605,0,0,1,2.862.7.6.6,0,0,1,2.9.772c.012.024.027.044.039.067l.035.071a.566.566,0,0,1,.031.071c.008.024.019.048.027.071s.016.048.023.075a.724.724,0,0,1,.019.075.517.517,0,0,1,.016.075c0,.024.008.052.012.075a.493.493,0,0,1,.008.075.514.514,0,0,1,0,.079c0,.028,0,.052,0,.079a.54.54,0,0,1,0,.079c0,.024,0,.052,0,.079s0,.052-.008.079-.008.052-.012.075-.012.052-.016.075a.535.535,0,0,1-.019.075c-.008.024-.016.048-.023.075s-.019.048-.027.071-.019.048-.031.071l-.035.071a.6.6,0,0,1-.039.067c-.012.024-.027.044-.039.067s-.027.044-.043.063-.031.04-.047.063a.686.686,0,0,1-.051.059.364.364,0,0,1-.055.055.364.364,0,0,0-.055.055c-.019.016-.039.036-.058.052L2.5,2.872a.6.6,0,0,1-.062.044.369.369,0,0,1-.066.04c-.023.012-.043.028-.066.04l-.07.036c-.023.012-.047.02-.07.032a.516.516,0,0,1-.07.028l-.074.024a.513.513,0,0,1-.074.02.494.494,0,0,1-.074.016l-.074.012-.078.012a.489.489,0,0,1-.078,0A.46.46,0,0,0,1.564,3.178Z" transform="translate(4.246 -0.003)" fill="#fff"/>
    <path id="Vector-13" data-name="Vector" d="M1.564,3.178H1.486c-.023,0-.051,0-.078,0a.48.48,0,0,1-.074-.012L1.259,3.15c-.023,0-.051-.012-.074-.016s-.051-.012-.074-.02L1.037,3.09c-.023-.008-.047-.02-.07-.028A.548.548,0,0,1,.9,3.031L.827,3a.585.585,0,0,1-.066-.04c-.023-.012-.043-.028-.066-.04S.651,2.888.632,2.872.593,2.841.569,2.825a.681.681,0,0,1-.058-.052.364.364,0,0,1-.055-.055A.727.727,0,0,0,.4,2.662C.386,2.643.367,2.623.351,2.6S.32,2.563.3,2.54a.605.605,0,0,1-.043-.063.378.378,0,0,1-.039-.067C.211,2.385.195,2.365.183,2.341L.148,2.27C.136,2.246.129,2.222.117,2.2A.535.535,0,0,1,.09,2.127C.082,2.1.074,2.08.066,2.052a.535.535,0,0,1-.019-.075A.517.517,0,0,1,.031,1.9a.5.5,0,0,1-.012-.075c0-.024-.008-.052-.012-.079a.514.514,0,0,1,0-.079c0-.028,0-.052,0-.079a.567.567,0,0,1,0-.079c0-.024,0-.052,0-.079a.5.5,0,0,1,.012-.075c0-.028.008-.052.012-.075S.043,1.228.047,1.2a.535.535,0,0,1,.019-.075C.074,1.1.082,1.077.09,1.053S.109,1.006.117.982A.566.566,0,0,1,.148.911L.183.839A.6.6,0,0,1,.222.772C.234.748.25.728.261.7S.289.661.3.641.335.6.351.578A.686.686,0,0,1,.4.518.364.364,0,0,1,.456.463L.511.407C.53.391.55.372.569.356S.608.324.632.308A.6.6,0,0,1,.694.265.585.585,0,0,1,.76.225C.784.213.8.2.827.185L.9.15C.92.138.944.13.967.118A.516.516,0,0,1,1.037.09L1.111.066a.513.513,0,0,1,.074-.02c.023,0,.051-.012.074-.016A.48.48,0,0,1,1.334.019L1.408.007a.489.489,0,0,1,.078,0,1.024,1.024,0,0,1,.156,0c.023,0,.051,0,.078,0A.622.622,0,0,1,1.8.019l.074.012c.023,0,.051.012.074.016S2,.058,2.02.066L2.094.09c.023.008.047.02.07.028s.047.02.07.032L2.3.185a.585.585,0,0,1,.066.04c.023.012.043.028.066.04S2.48.292,2.5.308s.039.032.062.048A.681.681,0,0,1,2.62.407a.364.364,0,0,1,.055.055L2.73.518c.016.02.035.04.051.059s.031.04.047.063A.605.605,0,0,1,2.87.7a.6.6,0,0,1,.039.067c.012.024.027.044.039.067l.035.071c.012.024.019.048.031.071a.535.535,0,0,1,.027.071c.008.024.016.048.023.075a.724.724,0,0,1,.019.075c0,.024.012.052.016.075s.008.052.012.075.008.052.012.075a.514.514,0,0,1,0,.079v.159c0,.024,0,.052,0,.079a.652.652,0,0,1-.012.079c0,.024-.008.052-.012.075s-.012.052-.016.075-.012.052-.019.075-.016.048-.023.075-.019.048-.027.071-.019.048-.031.071l-.035.071a.6.6,0,0,1-.039.067c-.012.024-.027.044-.039.067s-.027.044-.043.063-.031.04-.047.063a.686.686,0,0,1-.051.059.364.364,0,0,1-.055.055.727.727,0,0,0-.055.055c-.019.016-.039.036-.058.052s-.039.032-.062.048a.6.6,0,0,1-.062.044.369.369,0,0,1-.066.04c-.023.012-.043.028-.066.04l-.07.036c-.023.012-.047.02-.07.032a.516.516,0,0,1-.07.028l-.074.024a.513.513,0,0,1-.074.02.494.494,0,0,1-.074.016L1.8,3.162l-.078.012a.489.489,0,0,1-.078,0A.512.512,0,0,0,1.564,3.178Z" transform="translate(27.873 -0.003)" fill="#fff"/>
    <path id="Vector-14" data-name="Vector" d="M1.564,3.186H1.486c-.023,0-.051,0-.078,0A.622.622,0,0,1,1.33,3.17l-.074-.012a.488.488,0,0,1-.07-.024c-.023-.008-.051-.012-.074-.02L1.037,3.09c-.023-.008-.047-.02-.07-.028S.92,3.043.9,3.031L.827,3a.369.369,0,0,1-.066-.04c-.023-.012-.043-.028-.066-.04S.651,2.888.632,2.872.593,2.841.569,2.825a.681.681,0,0,1-.058-.052.364.364,0,0,1-.055-.055A.727.727,0,0,0,.4,2.662C.386,2.643.367,2.623.351,2.6S.32,2.563.3,2.54a.605.605,0,0,1-.043-.063.378.378,0,0,1-.039-.067C.211,2.385.195,2.365.183,2.341L.148,2.27C.136,2.246.129,2.222.117,2.2A.535.535,0,0,1,.09,2.127C.082,2.1.074,2.08.066,2.052a.535.535,0,0,1-.019-.075A.517.517,0,0,1,.031,1.9a.5.5,0,0,1-.012-.075c0-.024-.008-.052-.012-.079S0,1.7,0,1.668V1.509A.605.605,0,0,1,.008,1.43a.5.5,0,0,1,.012-.075c0-.028.008-.052.012-.075S.043,1.228.047,1.2s.012-.052.019-.075.016-.052.023-.075S.109,1.006.117.982A.566.566,0,0,1,.148.911L.183.839A.6.6,0,0,1,.222.772C.234.748.25.728.261.7S.289.661.3.641.335.6.351.578.386.538.4.518A.364.364,0,0,1,.456.463L.511.407C.53.391.55.372.569.356S.608.324.632.308A.6.6,0,0,1,.694.265.369.369,0,0,1,.76.225C.784.213.8.2.827.185L.9.15C.92.138.944.13.967.118A.516.516,0,0,1,1.037.09L1.111.066a.513.513,0,0,1,.074-.02A.494.494,0,0,1,1.259.031.48.48,0,0,1,1.334.019L1.412.007A.489.489,0,0,1,1.49,0a1.024,1.024,0,0,1,.156,0c.023,0,.051,0,.078,0A.48.48,0,0,1,1.8.019l.074.012c.023,0,.051.012.074.016a.513.513,0,0,1,.074.02L2.094.09c.023.008.047.02.07.028s.047.02.07.032L2.3.185a.585.585,0,0,1,.066.04c.023.012.043.028.066.04S2.48.292,2.5.308l.062.048A.681.681,0,0,1,2.62.407a.364.364,0,0,1,.055.055L2.73.518c.016.02.035.04.051.059s.031.04.047.063A.605.605,0,0,1,2.87.7a.6.6,0,0,1,.039.067c.012.024.027.044.039.067l.035.071c.012.024.019.048.031.071a.535.535,0,0,1,.027.071c.008.024.016.048.023.075a.535.535,0,0,1,.019.075c0,.024.012.052.016.075s.008.052.012.075.008.052.012.075a.514.514,0,0,1,0,.079v.159c0,.024,0,.052,0,.079a.652.652,0,0,1-.012.079c0,.024-.008.052-.012.075s-.012.052-.016.075-.012.052-.019.075-.016.048-.023.075-.019.048-.027.071-.019.048-.031.071l-.035.071a.6.6,0,0,1-.039.067c-.012.024-.027.044-.039.067s-.027.044-.043.063-.031.04-.047.063a.686.686,0,0,1-.051.059.364.364,0,0,1-.055.055.727.727,0,0,0-.055.055c-.019.016-.039.036-.058.052s-.039.032-.062.048a.6.6,0,0,1-.062.044.369.369,0,0,1-.066.04c-.019.012-.043.028-.066.04l-.07.036c-.023.012-.047.02-.07.032a.516.516,0,0,1-.07.028l-.074.024a.513.513,0,0,1-.074.02.494.494,0,0,1-.074.016L1.8,3.162l-.074.012a.514.514,0,0,1-.078,0A.632.632,0,0,1,1.564,3.186Z" transform="translate(0 -0.011)" fill="#fff"/>
  </g>
</svg>
