<svg xmlns="http://www.w3.org/2000/svg" width="86" height="80" viewBox="0 0 86 80">
  <g id="Action_3" data-name="Action 3" transform="translate(-96 -469)">
    <rect id="Rectangle_2" data-name="Rectangle 2" width="86" height="80" transform="translate(182 549) rotate(180)" fill="#3ec28f"/>
    <g id="icon">
      <path id="Vector" d="M3.778,0H1.556A1.557,1.557,0,0,1,0-1.556V-11.778a1.557,1.557,0,0,1,1.556-1.556H3.778a1.557,1.557,0,0,1,1.556,1.556V-1.556A1.557,1.557,0,0,1,3.778,0Z" transform="translate(144 518.778)" fill="#fff"/>
      <path id="Vector-2" data-name="Vector" d="M4.55,0a3.55,3.55,0,0,1-3.5-2.951l-1-5.778a3.554,3.554,0,0,1,3.5-4.16h4.2a8.583,8.583,0,0,1-.667-3.556A3.264,3.264,0,0,1,9.972-20c.889,0,1.333.444,1.333,2.667,0,2.112,2.045,3.812,3.361,4.687V-1.635A20.719,20.719,0,0,1,5.972,0Z" transform="translate(128 519)" fill="#fff"/>
    </g>
    <text id="Sign_up" data-name="Sign up" transform="translate(96 469)" fill="#fff" font-size="10" font-family="Montserrat-SemiBold, Montserrat" font-weight="600"><tspan x="19.225" y="10">Qualified</tspan></text>
  </g>
</svg>
