<svg xmlns="http://www.w3.org/2000/svg" width="10.666" height="10" viewBox="0 0 10.666 10">
  <g id="icon" transform="translate(-19 -298)">
    <path id="Vector" d="M1.889,0H.778A.779.779,0,0,0,0,.778V5.889a.779.779,0,0,0,.778.778H1.889a.779.779,0,0,0,.778-.778V.778A.779.779,0,0,0,1.889,0Z" transform="translate(27 298.111)" fill="#ff473a"/>
    <path id="Vector-2" data-name="Vector" d="M2.275,0A1.775,1.775,0,0,0,.524,1.476l-.5,2.889a1.777,1.777,0,0,0,1.751,2.08h2.1a4.292,4.292,0,0,0-.333,1.778A1.632,1.632,0,0,0,4.986,10c.444,0,.667-.222.667-1.333,0-1.056,1.023-1.906,1.68-2.344V.817A10.359,10.359,0,0,0,2.986,0Z" transform="translate(19 298)" fill="#ff473a"/>
  </g>
</svg>
