<svg xmlns="http://www.w3.org/2000/svg" width="18.68" height="20" viewBox="0 0 18.68 20">
  <path id="settings" d="M17.84,12l-1-.583a1.715,1.715,0,0,1,0-2.917l1-.583a1.584,1.584,0,0,0,.583-2.25L17.59,4.25a1.584,1.584,0,0,0-2.25-.583l-1,.583a1.663,1.663,0,0,1-2.5-1.417V1.667A1.672,1.672,0,0,0,10.173,0H8.507A1.672,1.672,0,0,0,6.84,1.667V2.75a1.663,1.663,0,0,1-2.5,1.417l-1-.5a1.616,1.616,0,0,0-2.25.583L.257,5.667A1.817,1.817,0,0,0,.84,8l1,.583a1.641,1.641,0,0,1,0,2.833L.84,12a1.584,1.584,0,0,0-.583,2.25l.833,1.417a1.584,1.584,0,0,0,2.25.583l1-.5a1.663,1.663,0,0,1,2.5,1.417v1.167A1.672,1.672,0,0,0,8.507,20h1.667a1.672,1.672,0,0,0,1.667-1.667V17.25a1.663,1.663,0,0,1,2.5-1.417l1,.583a1.616,1.616,0,0,0,2.25-.583l.833-1.417A1.9,1.9,0,0,0,17.84,12Zm-8.5,1.333A3.333,3.333,0,1,1,12.673,10,3.343,3.343,0,0,1,9.34,13.333Z" fill="#fff"/>
</svg>
