<svg xmlns="http://www.w3.org/2000/svg" width="52" height="15" viewBox="0 0 52 15">
  <g id="Source_Facebook" data-name="Source &gt; Facebook" transform="translate(-58 -335)">
    <path id="Vector" d="M0,0H52V15H0Z" transform="translate(58 335)" fill="#4385f6"/>
    <g id="Group">
      <path id="Vector-2" data-name="Vector" d="M20.822,3.888A1.848,1.848,0,0,0,20,4.109V6.633a5.319,5.319,0,0,0,.59.022c.8,0,.911-.367.911-.88V4.57C21.5,4.192,21.379,3.888,20.822,3.888ZM15.5,3.75c-.556,0-.683.305-.683.683v.212h1.365V4.433C16.181,4.055,16.054,3.75,15.5,3.75ZM5.186,6.378a.4.4,0,0,0,.453.454,1.66,1.66,0,0,0,.776-.221v-.6H5.684C5.338,6.013,5.186,6.077,5.186,6.378ZM26,3.888c-.557,0-.75.3-.75.682V5.951c0,.38.193.684.75.684s.75-.3.75-.684V4.57C26.75,4.192,26.556,3.888,26,3.888ZM2.456,7.927H.818V3.963H0V2.6H.818v-.82A1.545,1.545,0,0,1,2.593,0H3.686V1.366H3c-.511,0-.545.191-.545.547l0,.684H3.693L3.548,3.963H2.456V7.927Zm5.6.01H6.688l-.059-.345a3.129,3.129,0,0,1-1.546.4A1.452,1.452,0,0,1,3.548,6.4c0-1.091.622-1.48,1.734-1.48H6.414V4.683c0-.557-.064-.72-.92-.72h-1.4L4.231,2.6H5.761c1.879,0,2.291.594,2.291,2.1V7.937Zm4.641-3.874a7.818,7.818,0,0,0-1.5-.178c-.734,0-.956.162-.956.785V5.85c0,.623.222.786.956.786a7.79,7.79,0,0,0,1.5-.179V7.789A7.243,7.243,0,0,1,11.055,8C9.3,8,8.6,7.075,8.6,5.74V4.783c0-1.337.7-2.263,2.457-2.263a7.213,7.213,0,0,1,1.638.212V4.063ZM17.818,5.74h-3v.11c0,.623.222.786.956.786a9.544,9.544,0,0,0,1.91-.179V7.789A8.613,8.613,0,0,1,15.635,8c-1.758,0-2.457-.925-2.457-2.26V4.646c0-1.169.519-2.126,2.32-2.126s2.32.946,2.32,2.126V5.74Zm5.323.025c0,1.291-.369,2.232-2.6,2.232a12.354,12.354,0,0,1-2.171-.208V.41L20,.137V2.718a3.716,3.716,0,0,1,1.228-.2c1.637,0,1.91.734,1.91,1.913Zm5.248.028c0,1.114-.46,2.194-2.383,2.194s-2.393-1.08-2.393-2.194V4.718c0-1.114.468-2.194,2.393-2.194s2.383,1.08,2.383,2.194Zm5.244,0c0,1.114-.46,2.194-2.384,2.194s-2.393-1.08-2.393-2.194V4.718c0-1.114.468-2.194,2.393-2.194s2.384,1.08,2.384,2.194Zm5.382,2.133H37.24l-1.5-2.505V7.927H34.1V.41L35.74.137V4.976L37.24,2.6h1.775l-1.638,2.6ZM31.244,3.888c-.556,0-.749.3-.749.682V5.951c0,.38.193.684.749.684s.752-.3.752-.684V4.57C32,4.192,31.8,3.888,31.244,3.888Z" transform="translate(64 338)" fill="#fff"/>
    </g>
  </g>
</svg>
