<svg xmlns="http://www.w3.org/2000/svg" width="41" height="15" viewBox="0 0 41 15">
  <g id="Source_Google_Ads" data-name="Source &gt; Google Ads" transform="translate(-58 -171)">
    <rect id="Rectangle_31" data-name="Rectangle 31" width="41" height="15" rx="2" transform="translate(58 171)" fill="#34a855"/>
    <g id="Group_26" data-name="Group 26">
      <path id="Vector" d="M3.95,0A3.93,3.93,0,0,0,0,3.874,3.914,3.914,0,0,0,3.95,7.729,3.562,3.562,0,0,0,6.66,6.641a3.462,3.462,0,0,0,.916-2.462,3.486,3.486,0,0,0-.057-.668H3.95v1.05H6.489A2.222,2.222,0,0,1,5.916,5.9a2.629,2.629,0,0,1-1.966.782A2.781,2.781,0,0,1,1.164,3.874,2.782,2.782,0,0,1,3.95,1.069a2.622,2.622,0,0,1,1.908.763L6.6,1.088A3.663,3.663,0,0,0,3.95,0ZM10.42,2.767A2.461,2.461,0,0,0,7.939,5.286a2.481,2.481,0,1,0,4.962,0A2.473,2.473,0,0,0,10.42,2.767Zm0,4.046A1.447,1.447,0,0,1,9.027,5.286a1.4,1.4,0,1,1,2.786,0A1.447,1.447,0,0,1,10.42,6.813ZM15.8,2.767a2.449,2.449,0,0,0-2.481,2.519,2.481,2.481,0,1,0,4.962,0A2.461,2.461,0,0,0,15.8,2.767Zm0,4.046a1.447,1.447,0,0,1-1.393-1.527,1.4,1.4,0,1,1,2.786,0A1.435,1.435,0,0,1,15.8,6.813Zm5.363-4.046a2.459,2.459,0,0,0-2.366,2.5,2.454,2.454,0,0,0,2.366,2.481,1.668,1.668,0,0,0,1.3-.573H22.5v.363c0,.954-.5,1.469-1.317,1.469a1.362,1.362,0,0,1-1.24-.878l-.954.4A2.34,2.34,0,0,0,21.183,10a2.269,2.269,0,0,0,2.347-2.6V2.939H22.5v.4h-.038A1.668,1.668,0,0,0,21.164,2.767Zm.1,4.008a1.427,1.427,0,0,1-1.374-1.508A1.444,1.444,0,0,1,21.26,3.74a1.4,1.4,0,0,1,1.317,1.527A1.384,1.384,0,0,1,21.26,6.775ZM24.332.305H25.42V7.672H24.332V.305ZM28.34,2.767a2.4,2.4,0,0,0-2.385,2.519,2.465,2.465,0,0,0,2.5,2.519,2.5,2.5,0,0,0,2.1-1.107l-.859-.573a1.442,1.442,0,0,1-1.24.687,1.25,1.25,0,0,1-1.221-.763l3.378-1.393L30.5,4.37A2.365,2.365,0,0,0,28.34,2.767Zm-1.3,2.443A1.382,1.382,0,0,1,28.359,3.74a.951.951,0,0,1,.935.534Z" transform="translate(63 174)" fill="#fff"/>
    </g>
  </g>
</svg>
