<svg xmlns="http://www.w3.org/2000/svg" width="91" height="80" viewBox="0 0 91 80">
  <g id="Action_01" data-name="Action 01" transform="translate(-184 -469)">
    <rect id="Rectangle_2" data-name="Rectangle 2" width="91" height="80" transform="translate(275 549) rotate(180)" fill="#4385f6"/>
    <g id="icon">
      <path id="Vector" d="M0,20l1.406-5.136a9.91,9.91,0,1,1,3.848,3.758L0,20Zm5.5-3.172A8.218,8.218,0,1,0,3.212,14.6l-.832,3.04L5.5,16.828Zm9.489-4.553c-.062-.1-.227-.165-.475-.289s-1.465-.723-1.693-.806-.392-.124-.557.124-.64.806-.784.971-.289.186-.537.062a6.759,6.759,0,0,1-1.992-1.229A7.454,7.454,0,0,1,7.572,9.391c-.144-.247-.015-.382.108-.5s.247-.289.372-.434a1.624,1.624,0,0,0,.25-.412.455.455,0,0,0-.021-.434c-.062-.123-.558-1.343-.763-1.838s-.406-.418-.557-.425l-.475-.008a.907.907,0,0,0-.66.31,2.779,2.779,0,0,0-.867,2.066,4.819,4.819,0,0,0,1.011,2.562A11.041,11.041,0,0,0,10.2,14.01a14.329,14.329,0,0,0,1.412.522,3.4,3.4,0,0,0,1.56.1,2.551,2.551,0,0,0,1.672-1.178,2.063,2.063,0,0,0,.144-1.178Z" transform="translate(220.095 498)" fill="#fff"/>
    </g>
    <text id="Sign_up" data-name="Sign up" transform="translate(184 469)" fill="#fff" font-size="10" font-family="Montserrat-SemiBold, Montserrat" font-weight="600"><tspan x="18.73" y="10">Whatsapp</tspan></text>
  </g>
</svg>
